<svg width="109" height="28" viewBox="0 0 109 28" fill="none" xmlns="http://www.w3.org/2000/svg">
<path d="M39.7754 21H38.0439V15.375H32.4102V21H30.6787V8.57227H32.4102V13.8105H38.0439V8.57227H39.7754V21ZM46.499 21.7734C46.3936 22.0488 46.2705 22.3389 46.1299 22.6436C45.9893 22.9482 45.8223 23.2266 45.6289 23.4785C45.4355 23.7363 45.2129 23.9473 44.9609 24.1113C44.709 24.2812 44.4189 24.3662 44.0908 24.3662C43.9736 24.3662 43.8477 24.3545 43.7129 24.3311C43.5781 24.3076 43.4199 24.2695 43.2383 24.2168V22.9951C43.373 23.042 43.4873 23.0742 43.5811 23.0918C43.6748 23.1094 43.7539 23.1182 43.8184 23.1182C43.9941 23.1182 44.1436 23.0654 44.2666 22.96C44.3896 22.8545 44.498 22.7139 44.5918 22.5381C44.6855 22.3623 44.7676 22.1631 44.8379 21.9404C44.9141 21.7178 44.9844 21.4922 45.0488 21.2637L45.1367 20.9561L41.5859 12H43.3965L44.9434 16.2539L45.998 19.2773L47.0615 16.2539L48.5732 12H50.3486L46.499 21.7734ZM54.8223 21.167C54.1309 21.167 53.5977 21.0908 53.2227 20.9385C52.8535 20.7803 52.5811 20.54 52.4053 20.2178C52.2354 19.8896 52.1357 19.4736 52.1064 18.9697C52.0771 18.46 52.0625 17.8535 52.0625 17.1504V9.89941H50.7266V8.58984H53.7236V17.6074C53.7236 18.0762 53.7295 18.4541 53.7412 18.7412C53.7588 19.0283 53.8086 19.251 53.8906 19.4092C53.9785 19.5674 54.1133 19.6729 54.2949 19.7256C54.4824 19.7783 54.7461 19.8047 55.0859 19.8047L54.8223 21.167ZM59.7793 21.167C59.0879 21.167 58.5547 21.0908 58.1797 20.9385C57.8105 20.7803 57.5381 20.54 57.3623 20.2178C57.1924 19.8896 57.0928 19.4736 57.0635 18.9697C57.0342 18.46 57.0195 17.8535 57.0195 17.1504V9.89941H55.6836V8.58984H58.6807V17.6074C58.6807 18.0762 58.6865 18.4541 58.6982 18.7412C58.7158 19.0283 58.7656 19.251 58.8477 19.4092C58.9355 19.5674 59.0703 19.6729 59.252 19.7256C59.4395 19.7783 59.7031 19.8047 60.043 19.8047L59.7793 21.167ZM64.6045 19.6904C65.085 19.6904 65.498 19.6377 65.8438 19.5322C66.1953 19.4268 66.4824 19.2832 66.7051 19.1016C66.9336 18.9141 67.1006 18.6973 67.2061 18.4512C67.3174 18.1992 67.373 17.9268 67.373 17.6338C67.373 17.3408 67.3232 17.0859 67.2236 16.8691C67.124 16.6465 66.9658 16.4473 66.749 16.2715C66.5381 16.0957 66.2627 15.9287 65.9229 15.7705C65.583 15.6123 65.1758 15.4482 64.7012 15.2783C64.0801 15.0557 63.5557 14.8213 63.1279 14.5752C62.7061 14.3232 62.3633 14.0508 62.0996 13.7578C61.8359 13.459 61.6455 13.1338 61.5283 12.7822C61.417 12.4248 61.3613 12.0293 61.3613 11.5957C61.3613 11.0625 61.4609 10.5938 61.6602 10.1895C61.8594 9.7793 62.1318 9.43652 62.4775 9.16113C62.8291 8.88574 63.2393 8.67773 63.708 8.53711C64.1826 8.39648 64.6924 8.32617 65.2373 8.32617C65.8057 8.32617 66.3945 8.42285 67.0039 8.61621C67.6133 8.80371 68.2373 9.1084 68.876 9.53027L68.1992 10.8135C67.666 10.4736 67.1533 10.2305 66.6611 10.084C66.1748 9.93164 65.7119 9.85547 65.2725 9.85547C64.5576 9.85547 64.0068 10.0078 63.6201 10.3125C63.2334 10.6113 63.04 11.0273 63.04 11.5605C63.04 11.8594 63.0811 12.1143 63.1631 12.3252C63.2451 12.5361 63.3799 12.7266 63.5674 12.8965C63.7549 13.0605 63.998 13.2129 64.2969 13.3535C64.6016 13.4883 64.9766 13.6318 65.4219 13.7842C66.2012 14.0479 66.8281 14.3145 67.3027 14.584C67.7773 14.8535 68.1436 15.1348 68.4014 15.4277C68.6592 15.7207 68.8291 16.0342 68.9111 16.3682C68.999 16.7021 69.043 17.0713 69.043 17.4756C69.043 18.0557 68.9434 18.5771 68.7441 19.04C68.5508 19.5029 68.2695 19.8984 67.9004 20.2266C67.5312 20.5488 67.0771 20.7979 66.5381 20.9736C66.0049 21.1436 65.3955 21.2285 64.71 21.2285C64.1768 21.2285 63.6055 21.1465 62.9961 20.9824C62.3867 20.8125 61.7451 20.5459 61.0713 20.1826L61.6338 18.8115C62.2021 19.1045 62.7295 19.3242 63.2158 19.4707C63.708 19.6172 64.1709 19.6904 64.6045 19.6904ZM74.2725 19.8838C74.4365 19.8838 74.6152 19.8721 74.8086 19.8486C75.0078 19.8252 75.1748 19.7988 75.3096 19.7695V20.9824C75.1279 21.0293 74.9053 21.0703 74.6416 21.1055C74.3838 21.1465 74.123 21.167 73.8594 21.167C73.502 21.167 73.1768 21.1289 72.8838 21.0527C72.5967 20.9824 72.3506 20.8564 72.1455 20.6748C71.9463 20.4932 71.791 20.25 71.6797 19.9453C71.5742 19.6348 71.5215 19.248 71.5215 18.7852V13.3008H70.1416V11.9912H71.5654L71.8555 9.84668L73.1826 9.55664V11.9912H75.2744V13.3008H73.1826V18.5918C73.1826 18.7617 73.1943 18.9258 73.2178 19.084C73.2471 19.2422 73.2998 19.3799 73.376 19.4971C73.458 19.6143 73.5693 19.708 73.71 19.7783C73.8506 19.8486 74.0381 19.8838 74.2725 19.8838ZM84.9248 16.5C84.9248 17.1855 84.834 17.8154 84.6523 18.3896C84.4766 18.958 84.2129 19.4502 83.8613 19.8662C83.5156 20.2764 83.085 20.5957 82.5693 20.8242C82.0537 21.0527 81.459 21.167 80.7852 21.167C80.1465 21.167 79.5752 21.0557 79.0713 20.833C78.5674 20.6104 78.1426 20.2969 77.7969 19.8926C77.4512 19.4883 77.1846 19.0049 76.9971 18.4424C76.8154 17.8799 76.7246 17.2588 76.7246 16.5791C76.7246 15.9346 76.8037 15.3281 76.9619 14.7598C77.1201 14.1855 77.3662 13.6846 77.7002 13.2568C78.04 12.8232 78.4736 12.4805 79.001 12.2285C79.5283 11.9766 80.1582 11.8506 80.8906 11.8506C81.6113 11.8506 82.2266 11.9824 82.7363 12.2461C83.2461 12.5039 83.6621 12.8496 83.9844 13.2832C84.3125 13.7168 84.5498 14.2148 84.6963 14.7773C84.8486 15.334 84.9248 15.9082 84.9248 16.5ZM78.3594 16.5703C78.3594 17.0566 78.4062 17.502 78.5 17.9062C78.5938 18.3105 78.7373 18.6592 78.9307 18.9521C79.1299 19.2451 79.3848 19.4736 79.6953 19.6377C80.0059 19.8018 80.3809 19.8838 80.8203 19.8838C81.1719 19.8838 81.4971 19.8223 81.7959 19.6992C82.1006 19.5703 82.3613 19.3711 82.5781 19.1016C82.8008 18.8262 82.9736 18.4775 83.0967 18.0557C83.2197 17.6338 83.2812 17.127 83.2812 16.5352C83.2812 15.4395 83.0762 14.5986 82.666 14.0127C82.2559 13.4268 81.6582 13.1338 80.873 13.1338C80.5449 13.1338 80.2285 13.1982 79.9238 13.3271C79.625 13.4502 79.3584 13.6523 79.124 13.9336C78.8896 14.209 78.7021 14.5635 78.5615 14.9971C78.4268 15.4307 78.3594 15.9551 78.3594 16.5703ZM87.1924 14.3115C87.1924 14.2354 87.1895 14.1006 87.1836 13.9072C87.1836 13.7139 87.1807 13.5029 87.1748 13.2744C87.1748 13.0459 87.1689 12.8086 87.1572 12.5625C87.1514 12.3105 87.1455 12.1201 87.1396 11.9912H88.6777L88.7568 13.5557C88.9502 13.2451 89.1611 12.9814 89.3896 12.7646C89.6182 12.5479 89.8467 12.3721 90.0752 12.2373C90.3096 12.1025 90.5381 12.0059 90.7607 11.9473C90.9834 11.8828 91.1885 11.8506 91.376 11.8506C91.4932 11.8506 91.6191 11.8564 91.7539 11.8682C91.8945 11.874 92.0264 11.8857 92.1494 11.9033L92.0439 13.5205C91.8857 13.4912 91.7363 13.4678 91.5957 13.4502C91.4551 13.4326 91.3115 13.4238 91.165 13.4238C90.7549 13.4238 90.4033 13.4941 90.1104 13.6348C89.8174 13.7695 89.5771 13.96 89.3896 14.2061C89.208 14.4521 89.0732 14.7451 88.9854 15.085C88.8975 15.4248 88.8535 15.7998 88.8535 16.21V21H87.1924V14.3115ZM94.1709 21V13.3096H92.835V12H95.709L95.7969 13.3271C96.0078 13.0576 96.2246 12.8291 96.4473 12.6416C96.6699 12.4541 96.8926 12.3018 97.1152 12.1846C97.3438 12.0615 97.5664 11.9736 97.7832 11.9209C98 11.8682 98.2051 11.8418 98.3984 11.8418C98.7676 11.8418 99.0957 11.8799 99.3828 11.9561C99.6699 12.0322 99.9219 12.1406 100.139 12.2812C100.361 12.416 100.555 12.5801 100.719 12.7734C100.883 12.9609 101.026 13.1689 101.149 13.3975C101.278 13.1982 101.434 13.0049 101.615 12.8174C101.803 12.6299 102.014 12.4658 102.248 12.3252C102.482 12.1787 102.743 12.0615 103.03 11.9736C103.323 11.8857 103.643 11.8418 103.988 11.8418C104.381 11.8418 104.762 11.8945 105.131 12C105.5 12.1055 105.825 12.2842 106.106 12.5361C106.394 12.7822 106.622 13.1133 106.792 13.5293C106.968 13.9453 107.056 14.4639 107.056 15.085V21H105.421V15.1729C105.421 14.4639 105.271 13.9482 104.973 13.626C104.68 13.2979 104.231 13.1338 103.628 13.1338C103.399 13.1338 103.191 13.1572 103.004 13.2041C102.816 13.251 102.649 13.3125 102.503 13.3887C102.356 13.4648 102.23 13.5527 102.125 13.6523C102.02 13.7461 101.935 13.8398 101.87 13.9336C101.782 14.0625 101.709 14.2119 101.65 14.3818C101.598 14.5459 101.557 14.7188 101.527 14.9004C101.498 15.0762 101.478 15.2549 101.466 15.4365C101.454 15.6123 101.448 15.7793 101.448 15.9375V21H99.8047V15.085C99.8047 14.4814 99.6582 14.0068 99.3652 13.6611C99.0723 13.3096 98.6328 13.1338 98.0469 13.1338C97.8066 13.1338 97.5898 13.1631 97.3965 13.2217C97.2031 13.2744 97.0303 13.3447 96.8779 13.4326C96.7314 13.5146 96.6055 13.6084 96.5 13.7139C96.3945 13.8135 96.3096 13.9102 96.2451 14.0039C96.0752 14.2617 95.9639 14.5693 95.9111 14.9268C95.8584 15.2783 95.832 15.6504 95.832 16.043V21H94.1709Z" fill="black"/>
<path d="M15.5 13L11.5 27.5L10 15.5L5.39116 13L7.52068 10.4116L5.39115 4.92638L15.6251 3.50002L15.1544 9.96666L13.5 12L15.5 13Z" fill="black"/>
</svg>
