<svg width="74" height="14" viewBox="0 0 74 14" fill="none" xmlns="http://www.w3.org/2000/svg">
<path d="M12.8057 0.431641L7.29492 13H5.84473L0.307617 0.431641H1.31836L6.60059 12.2881L11.8213 0.431641H12.8057ZM14.4316 12.5605V11.5938C15.75 12.0625 17.2031 12.2969 18.791 12.2969C21.4219 12.2969 22.7373 11.3008 22.7373 9.30859C22.7373 7.84375 21.8818 7.11133 20.1709 7.11133H17.5869C15.249 7.11133 14.0801 6.05664 14.0801 3.94727C14.0801 1.54492 15.7939 0.34375 19.2217 0.34375C20.6279 0.34375 21.9902 0.519531 23.3086 0.871094V1.75C21.9902 1.33984 20.6279 1.13477 19.2217 1.13477C16.4092 1.13477 15.0029 2.07227 15.0029 3.94727C15.0029 5.4707 15.8643 6.23242 17.5869 6.23242H20.1709C22.4971 6.23242 23.6602 7.25781 23.6602 9.30859C23.6602 11.8281 22.0371 13.0879 18.791 13.0879C17.2031 13.0879 15.75 12.9121 14.4316 12.5605ZM26.0332 13V0.431641H31.3945C33.7852 0.431641 34.9805 1.40723 34.9805 3.3584C34.9805 4.78809 34.1133 5.81055 32.3789 6.42578C34.2188 6.73633 35.1387 7.71777 35.1387 9.37012C35.1387 11.79 33.8291 13 31.21 13H26.0332ZM31.1133 12.209C33.1406 12.209 34.1543 11.2715 34.1543 9.39648C34.1543 7.73828 32.8857 6.90918 30.3486 6.90918H29.6455V6.28516C32.5752 6.02148 34.04 5.06641 34.04 3.41992C34.04 1.95508 33.1377 1.22266 31.333 1.22266H26.9561V12.209H31.1133ZM38.2939 6.68066C38.2939 10.4248 40.0605 12.2969 43.5938 12.2969C47.0625 12.2969 48.7969 10.4248 48.7969 6.68066C48.7969 2.9834 47.0625 1.13477 43.5938 1.13477C40.0605 1.13477 38.2939 2.9834 38.2939 6.68066ZM37.2832 6.7334C37.2832 2.47363 39.3867 0.34375 43.5938 0.34375C47.7363 0.34375 49.8076 2.47363 49.8076 6.7334C49.8076 10.9697 47.7363 13.0879 43.5938 13.0879C39.3867 13.0879 37.2832 10.9697 37.2832 6.7334ZM61.8574 12.5078C60.7852 12.8945 59.6631 13.0879 58.4912 13.0879C53.9971 13.0879 51.75 10.9053 51.75 6.54004C51.75 2.40918 53.9473 0.34375 58.3418 0.34375C59.543 0.34375 60.7148 0.519531 61.8574 0.871094V1.66211C60.7148 1.31055 59.6016 1.13477 58.5176 1.13477C54.6211 1.13477 52.6729 2.93652 52.6729 6.54004C52.6729 10.3779 54.5654 12.2969 58.3506 12.2969C59.124 12.2969 59.9854 12.168 60.9346 11.9102V7.28711H61.8574V12.5078ZM63.4482 0.431641H64.5469L68.6162 7.72656L72.8086 0.431641H73.8193L69.1084 8.60547V13H68.1855V8.60547L63.4482 0.431641Z" fill="black"/>
</svg>
