<svg width="160" height="22" viewBox="0 0 160 22" fill="none" xmlns="http://www.w3.org/2000/svg">
<path d="M37.102 17.18C35.494 17.18 34.27 16.748 33.43 15.884C32.602 15.02 32.158 13.826 32.098 12.302C32.086 11.978 32.08 11.45 32.08 10.718C32.08 9.974 32.086 9.434 32.098 9.098C32.158 7.586 32.608 6.398 33.448 5.534C34.288 4.658 35.506 4.22 37.102 4.22C38.17 4.22 39.076 4.412 39.82 4.796C40.564 5.168 41.128 5.66 41.512 6.272C41.896 6.884 42.106 7.538 42.142 8.234V8.27C42.142 8.366 42.1 8.45 42.016 8.522C41.944 8.582 41.86 8.612 41.764 8.612H40.774C40.534 8.612 40.384 8.474 40.324 8.198C40.12 7.298 39.754 6.668 39.226 6.308C38.698 5.936 37.99 5.75 37.102 5.75C35.038 5.75 33.97 6.896 33.898 9.188C33.886 9.512 33.88 10.01 33.88 10.682C33.88 11.354 33.886 11.864 33.898 12.212C33.97 14.504 35.038 15.65 37.102 15.65C37.99 15.65 38.698 15.47 39.226 15.11C39.766 14.738 40.132 14.102 40.324 13.202C40.36 13.046 40.414 12.938 40.486 12.878C40.558 12.818 40.654 12.788 40.774 12.788H41.764C41.872 12.788 41.962 12.824 42.034 12.896C42.118 12.956 42.154 13.04 42.142 13.148C42.106 13.856 41.896 14.516 41.512 15.128C41.128 15.74 40.564 16.238 39.82 16.622C39.076 16.994 38.17 17.18 37.102 17.18ZM49.0903 17.18C47.5183 17.18 46.3003 16.772 45.4363 15.956C44.5843 15.128 44.1343 13.886 44.0863 12.23C44.0743 11.87 44.0683 11.36 44.0683 10.7C44.0683 10.04 44.0743 9.536 44.0863 9.188C44.1343 7.568 44.6023 6.338 45.4903 5.498C46.3783 4.646 47.5783 4.22 49.0903 4.22C50.5903 4.22 51.7843 4.646 52.6723 5.498C53.5603 6.338 54.0283 7.568 54.0763 9.188C54.1003 9.884 54.1123 10.388 54.1123 10.7C54.1123 11 54.1003 11.51 54.0763 12.23C54.0283 13.886 53.5723 15.128 52.7083 15.956C51.8563 16.772 50.6503 17.18 49.0903 17.18ZM49.0903 15.65C50.0383 15.65 50.7943 15.362 51.3583 14.786C51.9223 14.21 52.2283 13.328 52.2763 12.14C52.3003 11.42 52.3123 10.94 52.3123 10.7C52.3123 10.436 52.3003 9.956 52.2763 9.26C52.2283 8.072 51.9163 7.19 51.3403 6.614C50.7763 6.038 50.0263 5.75 49.0903 5.75C48.1423 5.75 47.3803 6.038 46.8043 6.614C46.2403 7.19 45.9343 8.072 45.8863 9.26C45.8743 9.608 45.8683 10.088 45.8683 10.7C45.8683 11.3 45.8743 11.78 45.8863 12.14C45.9343 13.328 46.2403 14.21 46.8043 14.786C47.3803 15.362 48.1423 15.65 49.0903 15.65ZM57.1499 17C57.0299 17 56.9279 16.964 56.8439 16.892C56.7719 16.808 56.7359 16.706 56.7359 16.586V4.832C56.7359 4.7 56.7719 4.598 56.8439 4.526C56.9279 4.442 57.0299 4.4 57.1499 4.4H58.0499C58.2419 4.4 58.3979 4.496 58.5179 4.688L62.3159 11.96L66.1499 4.688C66.1739 4.616 66.2219 4.55 66.2939 4.49C66.3779 4.43 66.4799 4.4 66.5999 4.4H67.4819C67.6139 4.4 67.7159 4.442 67.7879 4.526C67.8719 4.598 67.9139 4.7 67.9139 4.832V16.586C67.9139 16.706 67.8719 16.808 67.7879 16.892C67.7039 16.964 67.6019 17 67.4819 17H66.5999C66.4799 17 66.3779 16.964 66.2939 16.892C66.2219 16.808 66.1859 16.706 66.1859 16.586V7.73L63.1799 13.598C63.0599 13.85 62.8679 13.976 62.6039 13.976H62.0459C61.7819 13.976 61.5899 13.85 61.4699 13.598L58.4459 7.73V16.586C58.4459 16.706 58.4039 16.808 58.3199 16.892C58.2479 16.964 58.1519 17 58.0319 17H57.1499ZM71.4409 17C71.3209 17 71.2189 16.964 71.1349 16.892C71.0629 16.808 71.0269 16.706 71.0269 16.586V4.832C71.0269 4.7 71.0629 4.598 71.1349 4.526C71.2189 4.442 71.3209 4.4 71.4409 4.4H76.0129C77.3689 4.4 78.4369 4.73 79.2169 5.39C79.9969 6.05 80.3869 7.004 80.3869 8.252C80.3869 9.5 79.9969 10.454 79.2169 11.114C78.4489 11.762 77.3809 12.086 76.0129 12.086H72.8269V16.586C72.8269 16.706 72.7849 16.808 72.7009 16.892C72.6169 16.964 72.5149 17 72.3949 17H71.4409ZM75.9229 10.574C76.7989 10.574 77.4589 10.376 77.9029 9.98C78.3589 9.584 78.5869 9.008 78.5869 8.252C78.5869 7.496 78.3649 6.92 77.9209 6.524C77.4769 6.116 76.8109 5.912 75.9229 5.912H72.8089V10.574H75.9229ZM81.0091 17C80.9131 17 80.8291 16.964 80.7571 16.892C80.6851 16.82 80.6491 16.736 80.6491 16.64C80.6491 16.544 80.6551 16.478 80.6671 16.442L85.1311 4.796C85.2271 4.532 85.4191 4.4 85.7071 4.4H86.9311C87.2191 4.4 87.4111 4.532 87.5071 4.796L91.9531 16.442L91.9891 16.64C91.9891 16.736 91.9531 16.82 91.8811 16.892C91.8091 16.964 91.7251 17 91.6291 17H90.7111C90.5791 17 90.4771 16.97 90.4051 16.91C90.3331 16.838 90.2851 16.766 90.2611 16.694L89.2711 14.138H83.3671L82.3771 16.694C82.3531 16.766 82.2991 16.838 82.2151 16.91C82.1431 16.97 82.0471 17 81.9271 17H81.0091ZM88.7491 12.59L86.3191 6.2L83.8891 12.59H88.7491ZM94.3277 17C94.2077 17 94.1057 16.964 94.0217 16.892C93.9497 16.808 93.9137 16.706 93.9137 16.586V4.832C93.9137 4.7 93.9497 4.598 94.0217 4.526C94.1057 4.442 94.2077 4.4 94.3277 4.4H95.1557C95.3717 4.4 95.5217 4.484 95.6057 4.652L101.582 13.832V4.832C101.582 4.7 101.618 4.598 101.69 4.526C101.774 4.442 101.876 4.4 101.996 4.4H102.86C102.992 4.4 103.094 4.442 103.166 4.526C103.25 4.598 103.292 4.7 103.292 4.832V16.568C103.292 16.688 103.25 16.79 103.166 16.874C103.094 16.958 102.998 17 102.878 17H102.014C101.834 17 101.69 16.916 101.582 16.748L95.6237 7.658V16.586C95.6237 16.706 95.5817 16.808 95.4977 16.892C95.4137 16.964 95.3117 17 95.1917 17H94.3277ZM110.209 17C110.089 17 109.987 16.964 109.903 16.892C109.831 16.808 109.795 16.706 109.795 16.586V12.338L105.457 4.994C105.457 4.97 105.451 4.934 105.439 4.886C105.415 4.838 105.403 4.796 105.403 4.76C105.403 4.664 105.439 4.58 105.511 4.508C105.583 4.436 105.667 4.4 105.763 4.4H106.699C106.903 4.4 107.059 4.502 107.167 4.706L110.677 10.538L114.187 4.706C114.319 4.502 114.481 4.4 114.673 4.4H115.591C115.699 4.4 115.789 4.436 115.861 4.508C115.933 4.58 115.969 4.664 115.969 4.76C115.969 4.82 115.945 4.898 115.897 4.994L111.577 12.338V16.586C111.577 16.706 111.535 16.808 111.451 16.892C111.367 16.964 111.265 17 111.145 17H110.209ZM122.382 17C122.262 17 122.16 16.964 122.076 16.892C122.004 16.808 121.968 16.706 121.968 16.586V4.814C121.968 4.694 122.004 4.598 122.076 4.526C122.16 4.442 122.262 4.4 122.382 4.4H123.336C123.456 4.4 123.552 4.442 123.624 4.526C123.708 4.598 123.75 4.694 123.75 4.814V15.434H129.726C129.858 15.434 129.96 15.476 130.032 15.56C130.116 15.632 130.158 15.734 130.158 15.866V16.586C130.158 16.706 130.116 16.808 130.032 16.892C129.948 16.964 129.846 17 129.726 17H122.382ZM136.471 17.18C134.899 17.18 133.681 16.772 132.817 15.956C131.965 15.128 131.515 13.886 131.467 12.23C131.455 11.87 131.449 11.36 131.449 10.7C131.449 10.04 131.455 9.536 131.467 9.188C131.515 7.568 131.983 6.338 132.871 5.498C133.759 4.646 134.959 4.22 136.471 4.22C137.971 4.22 139.165 4.646 140.053 5.498C140.941 6.338 141.409 7.568 141.457 9.188C141.481 9.884 141.493 10.388 141.493 10.7C141.493 11 141.481 11.51 141.457 12.23C141.409 13.886 140.953 15.128 140.089 15.956C139.237 16.772 138.031 17.18 136.471 17.18ZM136.471 15.65C137.419 15.65 138.175 15.362 138.739 14.786C139.303 14.21 139.609 13.328 139.657 12.14C139.681 11.42 139.693 10.94 139.693 10.7C139.693 10.436 139.681 9.956 139.657 9.26C139.609 8.072 139.297 7.19 138.721 6.614C138.157 6.038 137.407 5.75 136.471 5.75C135.523 5.75 134.761 6.038 134.185 6.614C133.621 7.19 133.315 8.072 133.267 9.26C133.255 9.608 133.249 10.088 133.249 10.7C133.249 11.3 133.255 11.78 133.267 12.14C133.315 13.328 133.621 14.21 134.185 14.786C134.761 15.362 135.523 15.65 136.471 15.65ZM148.707 17.18C147.135 17.18 145.911 16.754 145.035 15.902C144.171 15.038 143.709 13.862 143.649 12.374C143.637 12.014 143.631 11.45 143.631 10.682C143.631 9.902 143.637 9.338 143.649 8.99C143.709 7.514 144.177 6.35 145.053 5.498C145.929 4.646 147.147 4.22 148.707 4.22C149.763 4.22 150.657 4.412 151.389 4.796C152.133 5.168 152.691 5.624 153.063 6.164C153.435 6.704 153.633 7.208 153.657 7.676V7.712C153.657 7.808 153.621 7.886 153.549 7.946C153.477 8.006 153.387 8.036 153.279 8.036H152.217C152.097 8.036 152.007 8.018 151.947 7.982C151.899 7.934 151.851 7.844 151.803 7.712C151.623 7.172 151.275 6.71 150.759 6.326C150.255 5.942 149.571 5.75 148.707 5.75C147.711 5.75 146.931 6.02 146.367 6.56C145.803 7.1 145.497 7.94 145.449 9.08C145.437 9.428 145.431 9.962 145.431 10.682C145.431 11.39 145.437 11.924 145.449 12.284C145.497 13.436 145.803 14.288 146.367 14.84C146.931 15.38 147.711 15.65 148.707 15.65C149.715 15.65 150.519 15.374 151.119 14.822C151.719 14.27 152.019 13.442 152.019 12.338V11.582H149.319C149.199 11.582 149.097 11.546 149.013 11.474C148.941 11.39 148.905 11.282 148.905 11.15V10.574C148.905 10.454 148.941 10.352 149.013 10.268C149.097 10.184 149.199 10.142 149.319 10.142H153.387C153.507 10.142 153.603 10.184 153.675 10.268C153.759 10.34 153.801 10.442 153.801 10.574V12.302C153.801 13.286 153.597 14.144 153.189 14.876C152.781 15.608 152.193 16.178 151.425 16.586C150.657 16.982 149.751 17.18 148.707 17.18ZM156.159 17C156.039 17 155.937 16.964 155.853 16.892C155.781 16.808 155.745 16.706 155.745 16.586V15.29C155.745 15.17 155.781 15.074 155.853 15.002C155.937 14.918 156.039 14.876 156.159 14.876H157.455C157.575 14.876 157.677 14.918 157.761 15.002C157.845 15.074 157.887 15.17 157.887 15.29V16.586C157.887 16.706 157.845 16.808 157.761 16.892C157.677 16.964 157.575 17 157.455 17H156.159Z" fill="black"/>
<path fill-rule="evenodd" clip-rule="evenodd" d="M3.2218 7.7782L0 11L3.2218 14.2218V18.7782H7.77817L11 22L14.2218 18.7782H18.7781V14.2219L22 11L18.7781 7.77814V3.22182H14.2218L11 0L7.77818 3.22182H3.2218V7.7782ZM3.2218 7.7782V14.2218L7.77817 18.7782H14.2218L18.7781 14.2219V7.77814L14.2218 3.22182H7.77818L3.2218 7.7782Z" fill="black"/>
</svg>
